<svg xmlns="http://www.w3.org/2000/svg" viewBox="0 0 1440 320"><path fill="#f3f4f5" fill-opacity="1" d="M0,128L16,160C32,192,64,256,96,266.7C128,277,160,235,192,186.7C224,139,256,85,288,90.7C320,96,352,160,384,202.7C416,245,448,267,480,245.3C512,224,544,160,576,138.7C608,117,640,139,672,122.7C704,107,736,53,768,32C800,11,832,21,864,26.7C896,32,928,32,960,74.7C992,117,1024,203,1056,245.3C1088,288,1120,288,1152,245.3C1184,203,1216,117,1248,106.7C1280,96,1312,160,1344,181.3C1376,203,1408,181,1424,170.7L1440,160L1440,320L1424,320C1408,320,1376,320,1344,320C1312,320,1280,320,1248,320C1216,320,1184,320,1152,320C1120,320,1088,320,1056,320C1024,320,992,320,960,320C928,320,896,320,864,320C832,320,800,320,768,320C736,320,704,320,672,320C640,320,608,320,576,320C544,320,512,320,480,320C448,320,416,320,384,320C352,320,320,320,288,320C256,320,224,320,192,320C160,320,128,320,96,320C64,320,32,320,16,320L0,320Z"></path></svg>